<svg width="69" height="67" viewBox="0 0 69 67" fill="none" xmlns="http://www.w3.org/2000/svg">
<path d="M35.4285 0.00123617C35.7147 0.0692952 35.8147 0.166005 35.9933 0.408945C36.1222 0.818234 36.1257 1.19124 36.1317 1.61738C36.1352 1.79234 36.1387 1.9673 36.1423 2.14225C36.144 2.2336 36.1457 2.32495 36.1475 2.41906C36.1818 4.30775 36.1818 4.30775 36.3195 6.19033C36.3278 6.27291 36.3361 6.35548 36.3447 6.44056C36.4075 6.99127 36.5253 7.51398 36.6597 8.04889C36.7653 8.00162 36.7653 8.00162 36.8731 7.9534C41.1546 6.05075 41.1546 6.05075 41.7683 6.05075C41.8049 5.97318 41.8416 5.8956 41.8793 5.81568C42.1104 5.75499 42.342 5.69616 42.5754 5.6462C42.8956 5.57698 43.2124 5.49743 43.53 5.41577C45.9072 4.81343 48.0932 4.45399 50.5418 4.52276C50.5785 4.63913 50.6151 4.75549 50.6529 4.87538C49.7171 5.62947 48.7825 6.37147 47.794 7.04707C47.5355 7.21939 47.5355 7.21939 47.3212 7.46121C47.1313 7.57785 46.9388 7.68992 46.745 7.79913C46.2664 8.07108 45.7925 8.34896 45.3221 8.63658C45.9206 8.83331 46.5237 8.96557 47.1381 9.09517C50.1809 9.74478 53.0124 10.8821 55.7615 12.3978C55.8348 12.4366 55.9081 12.4754 55.9836 12.5153C56.1465 12.6338 56.3083 12.7541 56.4695 12.8753C56.8852 13.1861 57.306 13.4852 57.7328 13.7789C59.0685 14.7201 60.2688 15.8082 61.4254 16.9818C61.5319 17.0883 61.6384 17.1948 61.7482 17.3045C62.3643 17.9356 62.9037 18.5914 63.4054 19.3251C63.5181 19.4881 63.6373 19.6459 63.7576 19.8027C63.8309 19.8027 63.9042 19.8027 63.9797 19.8027C63.9916 19.8707 64.0035 19.9387 64.0157 20.0088C64.1017 20.3112 64.2218 20.4849 64.4031 20.7356C64.8339 21.3691 65.2024 22.035 65.5692 22.7117C65.6571 22.8724 65.6571 22.8724 65.7468 23.0363C66.0279 23.5589 66.2504 24.0468 66.423 24.6217C66.4963 24.6605 66.5696 24.6993 66.6451 24.7392C66.764 25.0253 66.764 25.0253 66.8811 25.3784C66.9203 25.4946 66.9595 25.6108 67 25.7305C67.0893 26.0322 67.0893 26.0322 67.0893 26.2672C67.1626 26.306 67.2359 26.3448 67.3114 26.3848C67.3826 26.5923 67.3826 26.5923 67.4503 26.8843C67.5581 27.3332 67.6717 27.7785 67.7986 28.2218C69.9307 35.7139 69.2086 43.9811 65.7631 50.9081C65.1436 52.1255 64.4272 53.2516 63.6466 54.3587C63.5888 54.4412 63.531 54.5236 63.4714 54.6086C62.4867 56.0078 61.3532 57.2493 60.0619 58.3353C59.8658 58.5005 59.6721 58.669 59.4815 58.8412C53.8002 63.9544 45.9695 66.2655 38.6587 66.8177C38.5818 66.8244 38.5049 66.831 38.4257 66.8378C33.3475 67.2754 28.0539 66.8242 23.1107 65.5248C23.0094 65.4993 22.908 65.4737 22.8036 65.4474C18.9075 64.4645 15.1812 62.9143 11.8475 60.5465C11.5651 60.3388 11.5651 60.3388 11.2276 60.2356C11.0779 60.0806 10.9301 59.9236 10.7833 59.7655C10.5844 59.6031 10.3828 59.4442 10.1795 59.288C8.48291 57.9605 6.97486 56.4739 5.67472 54.7114C5.58453 54.593 5.49434 54.4747 5.40141 54.3528C4.43564 53.074 3.68885 51.6859 2.96076 50.2449C2.91351 50.1522 2.86627 50.0594 2.8176 49.9639C2.61372 49.5534 2.43673 49.1666 2.32522 48.7169C2.27905 48.5424 2.27905 48.5424 2.23194 48.3643C2.15865 48.3255 2.08535 48.2868 2.00983 48.2468C1.93478 48.0402 1.93478 48.0402 1.86407 47.7619C1.73353 47.2687 1.58254 46.7898 1.41984 46.3074C0.70474 44.0875 0.319199 41.7622 0.121859 39.4315C0.11284 39.3287 0.103821 39.2259 0.0945286 39.12C-0.144168 36.1921 0.0760961 33.1287 0.677145 30.2635C0.699442 30.155 0.721739 30.0464 0.744712 29.9345C1.43312 26.6677 2.71092 23.4653 4.56415 20.743C4.63315 20.638 4.70215 20.533 4.77324 20.4248C6.38432 18.0121 8.36821 15.8326 10.6723 14.1609C10.8038 14.0621 10.9352 13.9632 11.0666 13.8643C13.3374 12.1821 15.8304 10.9805 18.4463 10.047C18.5651 10.0017 18.6839 9.95643 18.8064 9.90976C19.1126 9.81196 19.1126 9.81196 19.5569 9.81196C19.5935 9.73439 19.6302 9.65681 19.6679 9.57689C19.9786 9.48842 20.2829 9.41492 20.598 9.34916C20.7379 9.31873 20.7379 9.31873 20.8806 9.28769C21.6612 9.12172 22.4459 8.9887 23.2349 8.87628C23.4538 8.84314 23.6712 8.79963 23.8881 8.75412C23.9247 8.67655 23.9614 8.59897 23.9991 8.51905C23.903 8.48845 23.8069 8.45785 23.7079 8.42633C23.3272 8.28186 23.0101 8.10475 22.6626 7.88682C22.5366 7.80805 22.4107 7.72929 22.281 7.64813C22.148 7.56384 22.015 7.4795 21.8821 7.39509C21.815 7.35278 21.748 7.31047 21.6789 7.26687C19.2693 5.74637 19.2693 5.74637 18.6684 5.11045C18.7051 4.99409 18.7417 4.87773 18.7795 4.75784C19.5107 4.37089 20.4739 4.52997 21.2574 4.62561C21.4616 4.6487 21.6658 4.67166 21.87 4.69448C21.968 4.70565 22.066 4.71683 22.1669 4.72834C22.6473 4.77942 23.1288 4.80787 23.6109 4.83497C23.8881 4.87538 23.8881 4.87538 24.0948 4.98617C24.348 5.11864 24.582 5.18883 24.8564 5.25875C24.9587 5.28551 25.061 5.31227 25.1664 5.33985C25.276 5.36839 25.3855 5.39693 25.4984 5.42634C27.81 6.05193 29.9431 6.99963 32.1063 8.04889C32.1159 7.93193 32.1255 7.81496 32.1354 7.69445C32.3631 5.19948 32.9477 2.34565 34.3552 0.276715C34.7332 0.00398227 34.9806 -0.00523509 35.4285 0.00123617Z" fill="#FF6350"/>
<path d="M35.3779 0.00122597C35.6638 0.0687235 35.7637 0.164636 35.9421 0.405572C36.0709 0.811485 36.0743 1.18142 36.0804 1.60404C36.0838 1.77755 36.0874 1.95107 36.0909 2.12458C36.0926 2.21517 36.0944 2.30577 36.0961 2.39911C36.1304 4.27221 36.1304 4.27222 36.268 6.13927C36.2763 6.22116 36.2846 6.30305 36.2931 6.38743C36.3558 6.93359 36.4735 7.452 36.6077 7.9825C36.7132 7.93562 36.7132 7.93562 36.8209 7.88779C41.0976 6.00084 41.0976 6.00084 41.7106 6.00084C41.7472 5.92391 41.7838 5.84697 41.8215 5.7677C42.0523 5.70751 42.2837 5.64917 42.5168 5.59963C42.8367 5.53098 43.1531 5.45208 43.4704 5.3711C45.8449 4.77372 48.0284 4.41725 50.4743 4.48546C50.5109 4.60086 50.5475 4.71626 50.5852 4.83516C49.6505 5.58303 48.717 6.31891 47.7296 6.98894C47.4714 7.15984 47.4714 7.15984 47.2572 7.39966C47.0862 7.50591 46.9124 7.60716 46.7372 7.70565C46.6273 7.76771 46.5173 7.82977 46.404 7.89371C46.2829 7.96148 46.1618 8.02925 46.037 8.09907C45.9101 8.17044 45.7833 8.24182 45.6526 8.31536C45.377 8.47038 45.1011 8.62482 44.825 8.7789C44.5011 8.95964 44.178 9.14173 43.8552 9.3244C43.6834 9.42109 43.5117 9.51778 43.3399 9.61445C43.2583 9.66086 43.1767 9.70726 43.0927 9.75507C42.5122 10.0807 42.5122 10.0807 42.2653 10.0807C42.2653 10.1577 42.2653 10.2346 42.2653 10.3139C42.3329 10.3238 42.4004 10.3338 42.47 10.3441C43.431 10.5052 44.3349 10.8108 45.2535 11.1371C45.3342 11.1656 45.4149 11.1941 45.4981 11.2234C48.1181 12.1511 50.5669 13.3737 52.8039 15.0932C52.8981 15.1633 52.9923 15.2335 53.0894 15.3058C53.5448 15.6507 53.5448 15.6507 53.6913 15.7926C53.6913 15.8695 53.6913 15.9464 53.6913 16.0257C52.7982 16.0512 51.9281 15.9541 51.0419 15.8449C50.9599 15.835 50.8778 15.825 50.7932 15.8148C48.368 15.5192 45.9526 15.1449 43.5365 14.7777C43.0362 14.7018 42.5359 14.6265 42.0357 14.5512C41.4353 14.4609 40.835 14.3702 40.2347 14.2795C40.1217 14.2624 40.0087 14.2453 39.8922 14.2278C39.5742 14.1797 39.2562 14.1315 38.9382 14.0831C38.8447 14.069 38.7511 14.0549 38.6547 14.0404C38.2284 13.9753 37.8056 13.9061 37.3842 13.8109C37.3617 13.9198 37.3617 13.9198 37.3387 14.0308C36.9469 15.7987 36.3728 17.4927 35.6579 19.1439C35.5835 19.3165 35.5835 19.3165 35.5077 19.4926C35.1526 20.2925 34.7669 21.1074 34.1672 21.7375C33.8621 21.8031 33.8621 21.8031 33.5016 21.7375C33.0001 21.2669 32.657 20.6538 32.3507 20.0327C32.3086 19.9479 32.2665 19.8632 32.2231 19.7758C31.4172 18.1062 30.2846 15.7099 30.2846 13.8109C30.2123 13.8226 30.14 13.8343 30.0656 13.8463C29.9119 13.8712 29.9119 13.8712 29.755 13.8965C29.6399 13.9151 29.5249 13.9337 29.4063 13.9529C29.1455 13.9951 28.8846 14.0371 28.6237 14.0792C27.9963 14.1803 27.3689 14.282 26.7421 14.3874C25.618 14.5749 24.4933 14.7488 23.3647 14.9037C23.2619 14.9179 23.1591 14.932 23.0531 14.9465C22.6241 15.0054 22.195 15.0642 21.7659 15.1228C20.0952 15.3519 18.4336 15.6179 16.7749 15.9291C16.0583 16.0621 15.3725 16.1839 14.6431 16.1423C15.067 15.0323 16.4822 14.331 17.4164 13.7526C17.5373 13.6773 17.6583 13.6019 17.7829 13.5242C18.8164 12.8886 19.8657 12.3245 20.9662 11.8292C21.0511 11.7908 21.1359 11.7523 21.2234 11.7126C22.8406 10.987 24.5081 10.416 26.1801 9.84759C25.892 9.54486 25.5565 9.38652 25.1955 9.19918C25.1262 9.16229 25.0568 9.1254 24.9854 9.08739C24.6494 8.91162 24.3321 8.75336 23.9614 8.68191C23.9614 8.60497 23.9614 8.52804 23.9614 8.44877C23.8654 8.41843 23.7694 8.38808 23.6705 8.35682C23.2903 8.21354 22.9735 8.03789 22.6263 7.82176C22.5005 7.74364 22.3748 7.66553 22.2452 7.58504C22.1123 7.50145 21.9795 7.4178 21.8468 7.33409C21.7798 7.29213 21.7128 7.25016 21.6437 7.20693C19.2368 5.69897 19.2368 5.69897 18.6367 5.0683C18.6733 4.95289 18.7099 4.83749 18.7476 4.71859C19.478 4.33484 20.4402 4.4926 21.2228 4.58745C21.4267 4.61036 21.6307 4.63312 21.8346 4.65575C21.9815 4.67238 21.9815 4.67238 22.1312 4.68934C22.6111 4.74 23.092 4.76821 23.5736 4.79509C23.8505 4.83516 23.8505 4.83516 24.0569 4.94504C24.3098 5.07641 24.5436 5.14603 24.8177 5.21537C24.9199 5.24191 25.0221 5.26845 25.1274 5.2958C25.2368 5.3241 25.3463 5.35241 25.459 5.38157C27.768 6.002 29.8987 6.94189 32.0595 7.9825C32.0691 7.8665 32.0786 7.75049 32.0885 7.63097C32.316 5.15658 32.8999 2.3263 34.3059 0.274432C34.6834 0.00394941 34.9305 -0.00519191 35.3779 0.00122597Z" fill="#27AE60"/>
<path d="M16.661 18.0493C16.774 18.0439 16.774 18.0439 16.8892 18.0385C17.3033 18.0384 17.5918 18.1099 17.9233 18.3581C18.1974 18.6888 18.1974 18.6888 18.1915 19.0367C18.0857 19.3864 18.0857 19.3864 17.8583 19.5808C17.7105 19.6552 17.7105 19.6552 17.5597 19.7311C17.3965 19.8159 17.3965 19.8159 17.2301 19.9025C17.0555 19.9887 17.0555 19.9887 16.8775 20.0768C16.6408 20.1995 16.4042 20.3224 16.1678 20.4456C16.0542 20.5038 15.9407 20.562 15.8237 20.622C13.1961 21.9838 10.9135 24.0977 9.44343 26.7487C9.2866 27.0128 9.14489 27.2051 8.92315 27.4091C8.61548 27.2917 8.49873 27.2245 8.35224 26.9127C7.98679 25.7468 8.38281 24.5443 8.84328 23.4695C10.0493 21.0156 12.197 19.4093 14.6218 18.4563C14.7154 18.4167 14.809 18.3771 14.9055 18.3363C15.4817 18.1198 16.0514 18.0665 16.661 18.0493Z" fill="#FEFBFC"/>
</svg>
