<svg width="73" height="68" viewBox="0 0 73 68" fill="none" xmlns="http://www.w3.org/2000/svg">
<path d="M37.4262 0.00123675C37.7285 0.0693275 37.8341 0.166083 38.0228 0.409136C38.159 0.818616 38.1626 1.1918 38.169 1.61813C38.1727 1.79317 38.1765 1.96821 38.1802 2.14325C38.182 2.23464 38.1838 2.32603 38.1857 2.42019C38.2219 4.30976 38.2219 4.30976 38.3675 6.19322C38.3762 6.27583 38.385 6.35844 38.394 6.44356C38.4603 6.99453 38.5848 7.51749 38.7267 8.05265C38.8384 8.00536 38.8384 8.00536 38.9522 7.95711C43.4751 6.05358 43.4751 6.05358 44.1234 6.05358C44.1621 5.97597 44.2009 5.89835 44.2408 5.81839C44.4848 5.75767 44.7295 5.69881 44.976 5.64884C45.3143 5.57958 45.649 5.49999 45.9845 5.4183C48.4957 4.81567 50.8049 4.45607 53.3917 4.52487C53.4304 4.64129 53.4691 4.75771 53.509 4.87765C52.5204 5.6321 51.5332 6.37444 50.4889 7.05036C50.2158 7.22276 50.2158 7.22276 49.9894 7.46469C49.7888 7.58139 49.5855 7.69351 49.3808 7.80277C48.8752 8.07484 48.3745 8.35285 47.8776 8.64061C48.5099 8.83743 49.147 8.96975 49.796 9.09941C53.0104 9.74932 56.0015 10.8872 58.9057 12.4036C58.9831 12.4424 59.0605 12.4812 59.1403 12.5212C59.3124 12.6397 59.4833 12.7601 59.6536 12.8813C60.0928 13.1922 60.5373 13.4915 60.9881 13.7853C62.3991 14.7269 63.6671 15.8155 64.8889 16.9897C65.0015 17.0962 65.114 17.2028 65.2299 17.3126C65.8808 17.9439 66.4506 18.6001 66.9806 19.3342C67.0996 19.4972 67.2256 19.6551 67.3526 19.8119C67.4301 19.8119 67.5075 19.8119 67.5873 19.8119C67.5998 19.88 67.6124 19.948 67.6253 20.0181C67.7161 20.3207 67.843 20.4945 68.0346 20.7453C68.4896 21.3791 68.8788 22.0453 69.2664 22.7223C69.3593 22.8831 69.3593 22.8831 69.454 23.047C69.7509 23.5699 69.986 24.058 70.1683 24.6332C70.2457 24.672 70.3232 24.7108 70.4029 24.7508C70.5285 25.037 70.5285 25.037 70.6522 25.3902C70.6937 25.5065 70.7351 25.6227 70.7778 25.7425C70.8722 26.0443 70.8722 26.0443 70.8722 26.2795C70.9496 26.3183 71.0271 26.3571 71.1069 26.3971C71.182 26.6047 71.182 26.6047 71.2535 26.8968C71.3674 27.346 71.4874 27.7915 71.6215 28.2349C73.8738 35.7306 73.1109 44.0016 69.4713 50.9318C68.8167 52.1498 68.06 53.2764 67.2353 54.3841C67.1743 54.4666 67.1132 54.5491 67.0503 54.6341C66.01 56.034 64.8126 57.276 63.4486 58.3625C63.2414 58.5278 63.0368 58.6964 62.8354 58.8687C56.8338 63.9842 48.5615 66.2965 40.8385 66.8489C40.7573 66.8555 40.6761 66.8622 40.5924 66.869C35.2278 67.3067 29.6357 66.8554 24.4138 65.5554C24.3068 65.5298 24.1997 65.5043 24.0894 65.4779C19.9736 64.4945 16.0372 62.9436 12.5155 60.5747C12.2172 60.367 12.2172 60.367 11.8607 60.2637C11.7026 60.1086 11.5464 59.9516 11.3914 59.7934C11.1812 59.6309 10.9683 59.4719 10.7535 59.3156C8.96123 57.9875 7.36814 56.5003 5.99469 54.7369C5.89941 54.6185 5.80414 54.5001 5.70598 54.3781C4.68575 53.0988 3.89685 51.71 3.1277 50.2684C3.0778 50.1756 3.02789 50.0828 2.97647 49.9872C2.76109 49.5765 2.57412 49.1895 2.45632 48.7397C2.40755 48.565 2.40755 48.565 2.3578 48.3869C2.28036 48.3481 2.20293 48.3093 2.12316 48.2693C2.04387 48.0626 2.04387 48.0626 1.96918 47.7842C1.83127 47.2908 1.67177 46.8116 1.4999 46.329C0.744478 44.1081 0.337198 41.7817 0.12873 39.4499C0.119203 39.347 0.109675 39.2442 0.0998586 39.1382C-0.152297 36.209 0.0803869 33.1441 0.715326 30.2776C0.738881 30.169 0.762435 30.0604 0.786703 29.9485C1.51393 26.6802 2.86378 23.4762 4.8215 20.7526C4.89439 20.6476 4.96729 20.5425 5.04239 20.4343C6.7443 18.0205 8.84006 15.84 11.2741 14.1675C11.413 14.0686 11.5518 13.9697 11.6906 13.8707C14.0894 12.1878 16.723 10.9856 19.4864 10.0517C19.6119 10.0064 19.7374 9.96108 19.8668 9.91438C20.1903 9.81654 20.1903 9.81654 20.6596 9.81654C20.6983 9.73893 20.737 9.66132 20.7769 9.58135C21.1051 9.49284 21.4266 9.41931 21.7595 9.35352C21.9072 9.32308 21.9072 9.32308 22.058 9.29202C22.8826 9.12598 23.7115 8.99289 24.545 8.88042C24.7763 8.84727 25.0059 8.80373 25.235 8.7582C25.2738 8.68059 25.3125 8.60298 25.3524 8.52302C25.2508 8.49241 25.1493 8.4618 25.0447 8.43026C24.6426 8.28572 24.3075 8.10853 23.9404 7.8905C23.8074 7.8117 23.6744 7.73289 23.5373 7.6517C23.3968 7.56737 23.2564 7.48299 23.116 7.39854C23.0451 7.35621 22.9742 7.31388 22.9012 7.27026C20.3558 5.74905 20.3558 5.74905 19.721 5.11284C19.7598 4.99642 19.7985 4.88 19.8384 4.76006C20.6108 4.37293 21.6284 4.53208 22.456 4.62777C22.6717 4.65087 22.8874 4.67384 23.1031 4.69667C23.2066 4.70785 23.3102 4.71903 23.4168 4.73055C23.9243 4.78165 24.4329 4.81011 24.9422 4.83723C25.235 4.87765 25.235 4.87765 25.4534 4.9885C25.7208 5.12103 25.9681 5.19125 26.2579 5.26121C26.366 5.28798 26.4741 5.31475 26.5855 5.34234C26.7012 5.37089 26.8169 5.39945 26.9362 5.42887C29.3781 6.05475 31.6315 7.00289 33.9167 8.05265C33.9268 7.93563 33.9369 7.8186 33.9474 7.69803C34.1879 5.2019 34.8055 2.34674 36.2924 0.276844C36.6916 0.00398412 36.953 -0.00523753 37.4262 0.00123675Z" fill="#FF6350"/>
<path d="M37.3727 0.00122654C37.6747 0.0687556 37.7802 0.164713 37.9688 0.405761C38.1048 0.811863 38.1084 1.18197 38.1148 1.60479C38.1185 1.77838 38.1222 1.95198 38.126 2.12557C38.1278 2.21621 38.1296 2.30684 38.1314 2.40023C38.1676 4.27421 38.1676 4.27421 38.313 6.14213C38.3217 6.22406 38.3305 6.30599 38.3395 6.39041C38.4058 6.93683 38.5301 7.45548 38.6719 7.98622C38.7834 7.93932 38.7834 7.93932 38.8971 7.89147C43.4149 6.00364 43.4149 6.00364 44.0625 6.00364C44.1012 5.92667 44.1398 5.8497 44.1797 5.7704C44.4235 5.71017 44.6679 5.6518 44.9141 5.60224C45.252 5.53356 45.5863 5.45462 45.9215 5.37361C48.4299 4.77595 50.7365 4.41931 53.3203 4.48755C53.359 4.603 53.3977 4.71846 53.4375 4.83742C52.4501 5.58564 51.4639 6.32186 50.4208 6.9922C50.1481 7.16318 50.1481 7.16318 49.9219 7.40311C49.7412 7.50942 49.5576 7.6107 49.3726 7.70924C49.2564 7.77133 49.1402 7.83342 49.0205 7.89739C48.8926 7.96519 48.7646 8.03299 48.6328 8.10285C48.4988 8.17425 48.3648 8.24566 48.2268 8.31923C47.9356 8.47433 47.6441 8.62884 47.3524 8.78299C47.0104 8.96382 46.669 9.146 46.328 9.32875C46.1466 9.42549 45.9651 9.52222 45.7837 9.61894C45.6975 9.66536 45.6113 9.71179 45.5225 9.75962C44.9093 10.0854 44.9093 10.0854 44.6484 10.0854C44.6484 10.1624 44.6484 10.2394 44.6484 10.3187C44.7198 10.3287 44.7912 10.3386 44.8648 10.3489C45.8798 10.5101 46.8347 10.8158 47.8052 11.1423C47.8904 11.1708 47.9757 11.1993 48.0636 11.2286C50.8313 12.1568 53.4181 13.38 55.7812 15.1002C55.8808 15.1704 55.9803 15.2406 56.0829 15.3129C56.564 15.658 56.564 15.658 56.7188 15.7999C56.7188 15.8769 56.7188 15.9539 56.7188 16.0332C55.7753 16.0587 54.8561 15.9615 53.92 15.8523C53.8333 15.8424 53.7466 15.8324 53.6572 15.8221C51.0953 15.5264 48.5436 15.1519 45.9913 14.7846C45.4629 14.7087 44.9344 14.6333 44.4059 14.558C43.7717 14.4676 43.1375 14.3769 42.5034 14.2861C42.384 14.2691 42.2646 14.252 42.1416 14.2344C41.8056 14.1863 41.4697 14.1381 41.1338 14.0897C41.0349 14.0756 40.9361 14.0615 40.8343 14.0469C40.384 13.9818 39.9373 13.9126 39.4922 13.8173C39.4684 13.9263 39.4684 13.9263 39.4441 14.0374C39.0302 15.806 38.4237 17.5009 37.6685 19.1528C37.5899 19.3255 37.5899 19.3255 37.5098 19.5017C37.1347 20.3019 36.7272 21.1173 36.0938 21.7477C35.7715 21.8133 35.7715 21.8133 35.3906 21.7477C34.8608 21.2768 34.4984 20.6635 34.1748 20.0421C34.1303 19.9573 34.0859 19.8724 34.0401 19.7851C33.1887 18.1147 31.9922 15.7172 31.9922 13.8173C31.9158 13.829 31.8395 13.8407 31.7608 13.8528C31.5985 13.8776 31.5985 13.8776 31.4328 13.903C31.3112 13.9216 31.1896 13.9402 31.0644 13.9594C30.7888 14.0016 30.5133 14.0437 30.2377 14.0857C29.5749 14.1869 28.9122 14.2887 28.25 14.3941C27.0625 14.5817 25.8743 14.7557 24.6822 14.9107C24.5735 14.9248 24.4649 14.9389 24.353 14.9535C23.8998 15.0124 23.4465 15.0712 22.9932 15.1298C21.2283 15.3591 19.473 15.6252 17.7208 15.9365C16.9637 16.0696 16.2393 16.1915 15.4688 16.1498C15.9166 15.0394 17.4116 14.3376 18.3984 13.759C18.5262 13.6836 18.6539 13.6082 18.7856 13.5305C19.8774 12.8946 20.9859 12.3303 22.1484 11.8348C22.2381 11.7963 22.3277 11.7578 22.4201 11.7181C24.1285 10.9922 25.89 10.4209 27.6562 9.85218C27.3519 9.54931 26.9975 9.3909 26.6162 9.20347C26.5429 9.16656 26.4697 9.12966 26.3942 9.09163C26.0393 8.91578 25.7041 8.75744 25.3125 8.68596C25.3125 8.60899 25.3125 8.53202 25.3125 8.45271C25.2111 8.42236 25.1096 8.392 25.0051 8.36072C24.6035 8.21737 24.2688 8.04164 23.9021 7.82541C23.7693 7.74726 23.6364 7.6691 23.4995 7.58858C23.3592 7.50495 23.2189 7.42126 23.0786 7.33751C23.0078 7.29553 22.9371 7.25354 22.8641 7.21029C20.3215 5.70162 20.3215 5.70162 19.6875 5.07066C19.7262 4.9552 19.7648 4.83975 19.8047 4.72079C20.5763 4.33686 21.5927 4.4947 22.4194 4.58959C22.6349 4.61251 22.8503 4.63528 23.0658 4.65793C23.2209 4.67456 23.2209 4.67456 23.3791 4.69152C23.8861 4.74221 24.3941 4.77043 24.9028 4.79733C25.1953 4.83742 25.1953 4.83742 25.4134 4.94735C25.6806 5.07878 25.9276 5.14843 26.217 5.2178C26.325 5.24436 26.433 5.27091 26.5442 5.29827C26.6598 5.32659 26.7754 5.35491 26.8945 5.38408C29.3337 6.0048 31.5846 6.94513 33.8672 7.98622C33.8773 7.87017 33.8874 7.75411 33.8979 7.63453C34.1381 5.15899 34.755 2.32738 36.2402 0.27456C36.6391 0.00395125 36.9001 -0.00519433 37.3727 0.00122654Z" fill="#27AE60"/>
<path d="M17.6004 18.0577C17.7198 18.0524 17.7198 18.0524 17.8415 18.0469C18.2789 18.0468 18.5837 18.1183 18.9339 18.3667C19.2235 18.6975 19.2235 18.6975 19.2173 19.0456C19.1054 19.3955 19.1054 19.3955 18.8653 19.5899C18.7091 19.6644 18.7091 19.6644 18.5498 19.7403C18.3775 19.8252 18.3775 19.8252 18.2016 19.9117C18.0172 19.9981 18.0172 19.9981 17.8291 20.0861C17.5791 20.2089 17.3292 20.3319 17.0794 20.4551C16.9595 20.5134 16.8395 20.5716 16.716 20.6316C13.9401 21.9941 11.5289 24.1089 9.97591 26.7612C9.81023 27.0254 9.66053 27.2178 9.42629 27.4219C9.10127 27.3044 8.97794 27.2372 8.82319 26.9252C8.43713 25.7588 8.85548 24.5558 9.34191 23.4805C10.6159 21.0254 12.8847 19.4184 15.4462 18.4649C15.5451 18.4253 15.644 18.3857 15.7459 18.3449C16.3546 18.1282 16.9565 18.0749 17.6004 18.0577Z" fill="#FEFBFC"/>
</svg>
